<?xml version="1.0" standalone="no"?>
<!DOCTYPE svg PUBLIC "-//W3C//DTD SVG 20010904//EN"
 "http://www.w3.org/TR/2001/REC-SVG-20010904/DTD/svg10.dtd">
<svg version="1.0" xmlns="http://www.w3.org/2000/svg"
 width="997.000000pt" height="994.000000pt" viewBox="0 0 997.000000 994.000000"
 preserveAspectRatio="xMidYMid meet">

    <g transform="translate(0.000000,994.000000) scale(0.100000,-0.100000)"
    fill="#16252a" stroke="none">
    <path d="M4755 8094 c-187 -19 -259 -29 -385 -54 -628 -125 -1210 -443 -1648
    -899 -110 -114 -265 -306 -350 -433 -62 -93 -162 -259 -162 -269 0 -2 1247 -4
    2770 -4 1524 0 2770 2 2770 5 0 13 -148 251 -207 334 -519 721 -1279 1180
    -2154 1301 -109 15 -543 28 -634 19z"/>
    <path d="M2265 6194 c-140 -25 -292 -81 -409 -151 -289 -173 -501 -453 -581
    -766 -188 -743 313 -1471 1073 -1557 69 -8 863 -10 2697 -8 2890 4 2624 -2
    2839 69 384 128 697 465 800 862 124 476 -40 977 -420 1288 -144 118 -306 198
    -504 251 l-85 23 -2665 2 c-2266 1 -2677 -1 -2745 -13z m5410 -467 c33 -9 101
    -37 150 -62 159 -78 272 -191 351 -350 60 -121 84 -222 84 -349 -1 -230 -70
    -396 -235 -561 -78 -79 -104 -98 -195 -143 -195 -96 104 -87 -2850 -87 -2954
    0 -2655 -9 -2850 87 -91 45 -117 64 -195 143 -165 165 -234 331 -235 561 0
    372 263 694 630 769 53 11 534 13 2675 12 2457 -2 2614 -3 2670 -20z"/>
    <path d="M3414 5430 c-50 -11 -91 -47 -109 -93 -14 -36 -15 -89 -13 -394 3
    -339 4 -353 24 -380 75 -101 207 -97 268 7 20 33 21 53 24 350 4 386 2 409
    -45 461 -32 35 -46 43 -103 54 -8 1 -29 -1 -46 -5z"/>
    <path d="M6470 5429 c-21 -4 -49 -23 -71 -47 -49 -52 -51 -73 -47 -462 3 -297
    4 -317 24 -350 34 -58 79 -82 144 -78 67 5 102 27 130 84 19 38 20 60 20 385
    0 338 0 346 -22 389 -34 66 -102 96 -178 79z"/>
    <path d="M2251 3413 c120 -222 290 -444 504 -659 176 -178 302 -282 493 -408
    533 -350 1094 -518 1732 -518 556 0 1054 128 1526 392 275 154 471 304 699
    534 214 216 383 437 504 659 l43 77 -2772 0 -2772 0 43 -77z"/>
    </g>
</svg>
